<svg width="125" height="85" viewBox="0 0 125 85" fill="none" xmlns="http://www.w3.org/2000/svg">
<path fill-rule="evenodd" clip-rule="evenodd" d="M118.533 25.9518L139.545 5.96455L135.41 1.61721L116.572 19.5368L100.375 2.50971L98.3073 0.336041L96.1336 2.40369L76.5706 21.0125L62.4417 6.15908L60.3741 3.9854L58.2004 6.05305L38.6374 24.6619L24.1638 9.44616L22.0962 7.27249L19.9225 9.34014L-0.00279352 28.2935L4.1325 32.6409L21.8841 15.7551L36.3577 30.9708L38.4253 33.1445L40.599 31.0768L60.162 12.468L74.2909 27.3215L76.3586 29.4951L78.5322 27.4275L98.0953 8.81867L114.292 25.8458L116.359 28.0194L118.533 25.9518ZM116.642 45.0024L118.816 42.9347L139.828 22.9475L135.693 18.6001L116.854 36.5197L100.658 19.4926L98.5901 17.319L96.4164 19.3866L76.8534 37.9954L62.7245 23.142L60.6568 20.9683L58.4832 23.036L38.9201 41.6448L24.4466 26.4291L22.379 24.2554L20.2053 26.3231L0.27999 45.2765L4.41528 49.6238L22.1669 32.7381L36.6404 47.9537L38.7081 50.1274L40.8818 48.0598L60.4448 29.451L74.5737 44.3044L76.6413 46.4781L78.815 44.4104L98.378 25.8016L114.575 42.8287L116.642 45.0024ZM119.099 59.9177L116.925 61.9853L114.857 59.8116L98.6608 42.7845L79.0978 61.3933L76.9241 63.461L74.8565 61.2873L60.7276 46.4339L41.1645 65.0427L38.9909 67.1104L36.9232 64.9367L22.4497 49.721L4.69806 66.6068L0.562774 62.2594L20.4881 43.306L22.6618 41.2384L24.7294 43.412L39.2029 58.6277L58.766 40.0189L60.9396 37.9513L63.0073 40.1249L77.1362 54.9784L96.6992 36.3696L98.8729 34.3019L100.941 36.4756L117.137 53.5027L135.976 35.5831L140.111 39.9304L119.099 59.9177ZM117.208 78.9682L119.381 76.9006L140.394 56.9133L136.258 52.566L117.42 70.4856L101.223 53.4585L99.1557 51.2848L96.982 53.3525L77.419 71.9613L63.2901 57.1079L61.2224 54.9342L59.0487 57.0019L39.4857 75.6107L25.0122 60.395L22.9445 58.2213L20.7709 60.2889L0.845557 79.2423L4.98085 83.5897L22.7325 66.7039L37.206 81.9196L39.2737 84.0933L41.4473 82.0256L61.0104 63.4168L75.1393 78.2703L77.2069 80.4439L79.3806 78.3763L98.9436 59.7675L115.14 76.7946L117.208 78.9682Z" fill="#5677FF"/>
</svg>
