<svg width="122" height="85" viewBox="0 0 122 85" fill="none" xmlns="http://www.w3.org/2000/svg">
<path fill-rule="evenodd" clip-rule="evenodd" d="M99.5331 25.9518L120.545 5.96455L116.41 1.61721L97.5715 19.5368L81.375 2.50971L79.3073 0.336041L77.1336 2.40369L57.5706 21.0125L43.4417 6.15908L41.3741 3.9854L39.2004 6.05305L19.6374 24.6619L5.16384 9.44616L3.09619 7.27249L0.92252 9.34014L-19.0028 28.2935L-14.8675 32.6409L2.88414 15.7551L17.3577 30.9708L19.4253 33.1445L21.599 31.0768L41.162 12.468L55.2909 27.3215L57.3586 29.4951L59.5322 27.4275L79.0953 8.81867L95.2918 25.8458L97.3595 28.0194L99.5331 25.9518ZM97.6422 45.0024L99.8159 42.9347L120.828 22.9475L116.693 18.6001L97.8543 36.5197L81.6577 19.4926L79.5901 17.319L77.4164 19.3866L57.8534 37.9954L43.7245 23.142L41.6568 20.9683L39.4832 23.036L19.9201 41.6448L5.44662 26.4291L3.37897 24.2554L1.2053 26.3231L-18.72 45.2765L-14.5847 49.6238L3.16692 32.7381L17.6404 47.9537L19.7081 50.1274L21.8818 48.0598L41.4448 29.451L55.5737 44.3044L57.6413 46.4781L59.815 44.4104L79.378 25.8016L95.5746 42.8287L97.6422 45.0024ZM100.099 59.9177L97.925 61.9853L95.8574 59.8116L79.6608 42.7845L60.0978 61.3933L57.9241 63.461L55.8565 61.2873L41.7276 46.4339L22.1645 65.0427L19.9909 67.1104L17.9232 64.9367L3.44971 49.721L-14.3019 66.6068L-18.4372 62.2594L1.48809 43.306L3.66176 41.2384L5.7294 43.412L20.2029 58.6277L39.766 40.0189L41.9396 37.9513L44.0073 40.1249L58.1362 54.9784L77.6992 36.3696L79.8729 34.3019L81.9405 36.4756L98.1371 53.5027L116.976 35.5831L121.111 39.9304L100.099 59.9177ZM98.2078 78.9682L100.381 76.9006L121.394 56.9133L117.258 52.566L98.4199 70.4856L82.2233 53.4585L80.1557 51.2848L77.982 53.3525L58.419 71.9613L44.2901 57.1079L42.2224 54.9342L40.0487 57.0019L20.4857 75.6107L6.01219 60.395L3.94454 58.2213L1.77087 60.2889L-18.1544 79.2423L-14.0192 83.5897L3.73249 66.7039L18.206 81.9196L20.2737 84.0933L22.4473 82.0256L42.0104 63.4168L56.1393 78.2703L58.2069 80.4439L60.3806 78.3763L79.9436 59.7675L96.1402 76.7946L98.2078 78.9682Z" fill="#5677FF"/>
</svg>

